<svg id="Layer_1" data-name="Layer 1" xmlns="http://www.w3.org/2000/svg" viewBox="0 0 384 384"><defs><style>.cls-1{fill:#fefefe;}</style></defs><path class="cls-1" d="M192.09,383.92q-94.44,0-188.88.08C.42,384,0,383.31,0,380.7Q.11,192,0,3.33C0,.8.32,0,3.18,0Q192.06.15,380.94,0c2.63,0,3,.61,3,3.11q-.12,188.87,0,377.74c0,3.05-1,3.11-3.4,3.1Q286.34,383.89,192.09,383.92Z"/><path d="M191.67,347.93c-31.29,0-62.59-.08-93.89.06-8.11,0-16.13.36-24-2.13a54.05,54.05,0,0,1-38-52.12q.21-36.17.24-72.33a76.47,76.47,0,0,1,6.4-30.87C53.05,165.88,64,141.33,74,116.37c8.77-21.94,25-31.62,47.67-32.22,2-.05,4-.14,6-.08a12,12,0,0,1,.14,23.92,129.13,129.13,0,0,0-13,.82c-7.85,1-13.31,5.28-16.47,12.44-4.72,10.71-9.32,21.46-13.94,32.21-5.66,13.15-11.22,26.34-16.95,39.46-1.1,2.52-.71,3.06,2,3.07,15.08.08,30.2-.84,45.24.37,19.87,1.6,35,11.46,45.21,28.54,8,13.33,19.55,20,35.1,18.81,12.73-1,22-7.76,28.42-18.73a57,57,0,0,1,33.08-26.39,59.29,59.29,0,0,1,18-2.64c13.1,0,26.19-.06,39.28,0,2.52,0,3.31-.27,2.12-3-9.87-22.85-19.82-45.66-29.33-68.66-4.53-11-12.4-16-23.92-16.16-2.62,0-5.25,0-7.85-.18a11.92,11.92,0,0,1-10.87-11.36c-.22-6.27,4-12.12,10.08-12.34,14.11-.52,27.93.88,39.75,9.86,6.87,5.21,11.08,12.43,14.41,20.16q17.07,39.6,33.91,79.3a67.28,67.28,0,0,1,5.2,26.24c.12,24.73-.12,49.46.21,74.2.4,30-24.21,54.63-54.06,54.15-28.05-.44-56.1-.07-84.15-.25C203.4,347.9,197.53,347.93,191.67,347.93Z"/><path d="M178.84,61.48c-3.35,3.49-6.64,7.05-10.08,10.44-5.39,5.33-12.75,5.47-17.62.48s-4.6-12,.67-17.36q15.28-15.43,30.68-30.75c5.7-5.66,12.5-5.73,18.17-.11q15.68,15.56,31.2,31.27c5.17,5.24,5.28,12.55.44,17.38s-12.07,4.71-17.34-.46c-3.62-3.56-7.12-7.23-11.37-11.56v4.88q0,46.85,0,93.69c0,5.86-3.16,10.35-8.27,12a12,12,0,0,1-13.53-4.66c-1.81-2.57-2.15-5.48-2.15-8.54q0-46.84,0-93.69V62Z"/><path class="cls-1" d="M191.62,324q-47.12,0-94.23,0a64.57,64.57,0,0,1-14.48-1.3c-13.16-3-20.41-11-22.23-24.33a82.88,82.88,0,0,1-.77-11.57c0-21,.07-42-.06-62.94,0-3,.48-4,3.76-4,15.08.2,30.16,0,45.25.11,13.39.1,23.67,5.86,30.55,17.47,24.14,40.72,80.19,40.78,104.33.1,7-11.74,17.31-17.53,30.87-17.58,15.08-.05,30.16.07,45.24-.08,2.84,0,3.49.75,3.47,3.53-.12,21.48-.07,43-.07,64.44a60.49,60.49,0,0,1-1.27,13c-2.9,13.21-10.78,20.46-24.2,22.34a88.82,88.82,0,0,1-12.3.78Q238.55,323.93,191.62,324Z"/></svg>