<?xml version="1.0" encoding="utf-8"?>
<!-- Generator: Adobe Illustrator 26.1.0, SVG Export Plug-In . SVG Version: 6.00 Build 0)  -->
<svg version="1.1" id="Capa_1" xmlns="http://www.w3.org/2000/svg" xmlns:xlink="http://www.w3.org/1999/xlink" x="0px" y="0px"
	 viewBox="0 0 338.2 338.2" style="enable-background:new 0 0 338.2 338.2;" xml:space="preserve">
<path d="M289.9,70.4C310.5,59.2,314.1,57,314,54.8c0-0.5-0.3-1.2-1.3-1.6c-2-0.9-4-1.5-5.9-2c-3.9-1.1-7.3-2-10.5-5.9
	c-1.5-1.8-3.2-5.1-5.1-8.9C285.1,24.3,275.8,6,255.8,1.2c-3.3-0.8-6.7-1.2-10-1.2c-12.3,0-23.4,5.4-32.3,15.6
	c-9.9,11.4-16.4,27.9-19.2,49c-3.6,26.5-42.2,76.7-65.2,106.7c-7.8,10.2-14,18.2-16.4,22.2c-8.9,14.7-25.6,34.1-39,49.7
	c-15.5,18-23.6,27.5-23.2,31.1c0.1,0.7,0.4,1.1,0.7,1.3c0.4,0.3,0.9,0.5,1.5,0.5c4.9,0,21.4-12.1,36.7-24.1
	c-10.4,10.9-23.7,25.8-36.7,40.3c-4,4.5-8,8.9-11.8,13.1c-11.7,13-18.1,24-16.3,28.1c0.5,1,1.4,1.6,2.6,1.6c3.3,0,8.4-4,12.1-7.4
	c6.6-6.1,10.5-8.4,12-8.5c0,0.5-0.4,1.8-2.1,4.3c-4,5.8-5.5,10.7-4.3,13.1c0.5,1,1.4,1.5,2.6,1.5c2.4,0,6-2.4,9.9-6.8
	c10.6-11.7,46.7-45.2,64-61.3c4.8-4.5,8-7.5,8.8-8.2c0.2-0.1,1-0.2,3.7-0.2c2.1,0,5,0.1,8.3,0.1c5.1,0.1,11.4,0.3,18.5,0.3
	c0,0,0,0,0,0c3.4,0,6.6,0,9.9-0.1c0.1,3.1-0.1,6.8-1.2,7.6c-0.1,0.1-0.2,0.2-0.4,0.3c-1.2,0.8-4.2,2.7-8.6,7.7c-1.8,2-3.8,4.8-3,6.5
	c0.3,0.6,0.9,1,1.6,1l0,0c0.8,0,1.9-0.5,2.9-1.5c7.3-6.9,16.7-10.9,25.8-10.9c1.4,0,2.8,0.1,4.1,0.3c6.1,0.8,7.2,1.3,9.2,2.2
	c0.9,0.4,2,0.9,3.9,1.5c0.8,0.3,1.6-0.2,1.7-0.9c0.3-1.8-3.4-6.9-6.6-8.1c-2.8-1.1-6-1.7-9.4-1.7c-3.6,0-6.8,0.6-9.1,1
	c-1.1,0.2-2,0.4-2.6,0.4c-0.1-1.3,0-3.8,0-5.7c13.4-0.7,25.4-2.2,36.1-4.6c7.5,4.5,14.4,8.8,15.1,9.6c0.3,0.5-0.2,2.5-0.6,4.1
	c-0.5,1.9-1.1,4-1.2,6.3c-0.2,3,0.9,5.6,1.9,6.7c0.5,0.5,1,0.8,1.5,0.8c0.4,0,1.5-0.2,1.6-2.1c0.2-2.9,4.3-12,7.5-15
	c5.2-4.9,9.8-5.3,16.6-5.1c5.5,0.2,9.7,1.6,11.7,2.3c0.9,0.3,1.3,0.4,1.6,0.4l0,0c0.4,0,0.8-0.2,0.9-0.5l0.3-0.6l-0.3-0.5
	c-0.7-1.2-4.5-5.9-10.5-7.6c-3.5-1-6.7-1.4-9.6-1.4c-5.6,0-9,1.7-11.5,3c-1.4,0.7-2.4,1.2-3.2,1.1c-1.2-0.2-4.8-2.2-9.3-4.7
	c13.6-4.4,24.5-10.5,32.8-18.4c41.9-40,39.9-89,30.8-123.1c-2.5-9.3-5.7-16-8-20.9C278.1,80.8,276.6,77.7,289.9,70.4z"/>
</svg>
