<svg aria-hidden="true" style="position: absolute; width: 0; height: 0; overflow: hidden;" version="1.1"
    xmlns="http://www.w3.org/2000/svg" xmlns:xlink="http://www.w3.org/1999/xlink">
    <defs>
        <symbol id="icon-facebook" viewBox="0 0 32 32">
            <path fill="#6b7c93" style="fill: var(--color1, #6b7c93)"
                d="M0 16c0-8.837 7.163-16 16-16s16 7.163 16 16-7.163 16-16 16-16-7.163-16-16zM16.795 25.212v-8.728h2.294l0.305-3.008h-2.599l0.004-1.505c0-0.785 0.071-1.205 1.144-1.205h1.435v-3.008h-2.296c-2.757 0-3.727 1.459-3.727 3.913v1.806h-1.718v3.009h1.718v8.727h3.441z">
            </path>
        </symbol>
        <symbol id="icon-help-tube" viewBox="0 0 32 32">
            <path fill="#4ad5f6" style="fill: var(--color2, #4ad5f6)"
                d="M16 0c-8.836 0-16 7.164-16 16s7.164 16 16 16 16-7.164 16-16-7.164-16-16-16zM28.736 10.893l-4.393 1.35c-0.481-1.052-1.112-1.951-1.879-2.714l-0-0c-0.764-0.766-1.662-1.398-2.657-1.855l-0.057-0.023 1.35-4.393c1.7 0.678 3.257 1.707 4.593 3.035 1.281 1.279 2.311 2.808 3.010 4.509l0.033 0.092zM16 22.857c-3.786 0-6.857-3.071-6.857-6.857s3.071-6.857 6.857-6.857 6.857 3.071 6.857 6.857-3.071 6.857-6.857 6.857zM6.3 6.3c1.275-1.28 2.803-2.308 4.502-3.003l0.091-0.033 1.35 4.393c-1.052 0.481-1.951 1.112-2.714 1.879l-0 0c-0.766 0.764-1.398 1.662-1.855 2.657l-0.023 0.057-4.393-1.35c0.734-1.791 1.764-3.32 3.043-4.599v0zM3.264 21.107l4.393-1.35c0.481 1.052 1.112 1.951 1.879 2.714l0 0c0.764 0.766 1.662 1.398 2.657 1.855l0.057 0.023-1.35 4.393c-1.789-0.73-3.316-1.758-4.593-3.035l-0-0c-1.281-1.279-2.311-2.808-3.010-4.509l-0.033-0.092zM25.7 25.7c-1.275 1.28-2.803 2.308-4.502 3.003l-0.091 0.033-1.35-4.393c1.052-0.481 1.951-1.112 2.714-1.879l0-0c0.766-0.764 1.398-1.662 1.855-2.657l0.023-0.057 4.393 1.35c-0.734 1.791-1.764 3.32-3.043 4.6v0z">
            </path>
        </symbol>
        <symbol id="icon-hero-bg" viewBox="0 0 81 32">
            <path fill="#ebf4fa" style="fill: var(--color3, #ebf4fa)" d="M0 0h81.127v32h-81.127z"></path>
            <path fill="#dfe3e8" style="fill: var(--color4, #dfe3e8)" d="M54.817 17.916h0.056v12.676h-0.056z"></path>
            <path fill="#dfe3e8" style="fill: var(--color4, #dfe3e8)" opacity="0.5"
                d="M56.507 11.155h0.056v12.676h-0.056z"></path>
            <path fill="#dfe3e8" style="fill: var(--color4, #dfe3e8)" d="M60.225 14.254h0.056v12.676h-0.056z"></path>
            <path fill="#dfe3e8" style="fill: var(--color4, #dfe3e8)" opacity="0.5"
                d="M65.746 12.789h0.056v12.676h-0.056z"></path>
            <path fill="#dfe3e8" style="fill: var(--color4, #dfe3e8)"
                d="M66.648 18.31h0.056v12.676h-0.056zM63.437 9.915h0.056v12.676h-0.056z"></path>
            <path fill="#000" style="fill: var(--color5, #000)"
                d="M65.124 27.431c-1.998 0.923-3.958 0.414-6.448-1.25-7.341-4.903-12.536-4.238-19.377 0.189-1.457 0.943-3.81 2.511-7.753 1.395-5.771-1.633-11.707 0.018-14.191 4.561h65.449c-1.863-3.549-8.831-8.983-17.68-4.896z">
            </path>
            <path fill="#000" style="fill: var(--color5, #000)"
                d="M30.644 32.327c0.285-0.53 1.712-1.571 3.522-1.289 1.976 0.308 2.411-0.364 3.225-0.643 1.492-0.511 2.643 1.176 3.159 0.105 0.658-1.367 1.727-2.043 4.986-0.698 0.774 0.319 0.721-0.388 1.073-0.801 0.684-0.802 1.513 0.679 1.893 0.597 0.432-0.092 0.3-0.723 0.553-1.263 0.527-1.125 1.436-0.068 2.062-0.16 0.624-0.092 0.958-1.33 1.664-1.080 1.509 0.535 1.035 3.677 0.942 4.378 0.429-0.598 1.185-1.038 1.185 0.853h-24.265z">
            </path>
            <path fill="#000" style="fill: var(--color5, #000)"
                d="M37.379 32.327h7.321c0.38-1.512-1.114-0.756-1.114-0.756s0.563-1.59-0.014-1.425c-0.557 0.159-0.802 1.398-0.802 1.398s-0.3-2.023-0.959-2.155c-0.427-0.086-0.092 1.923-0.092 1.923s-0.252-0.215-0.615-0.22c-0.305-0.005-0.231 0.388-0.231 0.388s-0.636-1.304-0.967-1.288c-0.415 0.021 0.030 1.392 0.030 1.392s-0.818-0.891-1.14-0.868c-0.448 0.032 0.333 1.305 0.333 1.305s-0.593-0.357-1.299-0.298c-0.509 0.043-0.705 0.248-0.451 0.604z">
            </path>
            <path fill="#000" style="fill: var(--color5, #000)"
                d="M73.809 24.032c0 3.145-1.249 5.718-2.116 5.718s-2.015-3.434-2.015-6.579c0-3.145 1.403-5.174 2.411-4.811 1.136 0.408 1.72 2.527 1.72 5.672z">
            </path>
            <path fill="#000" style="fill: var(--color5, #000)"
                d="M59.777 32.327h-6.688v-6.7l3.344-4.612 3.344 4.612v6.7z"></path>
            <path fill="#f7ce8f" style="fill: var(--color6, #f7ce8f)" d="M59.777 32.327h7.887v-6.7h-7.887z"></path>
            <path fill="#000" style="fill: var(--color5, #000)" d="M61.038 32.327h7.677v-5.474h-7.677z"></path>
            <path fill="#000" style="fill: var(--color5, #000)" d="M68.715 32.327h7.887v-5.474h-7.887z"></path>
            <path fill="#9d9d9c" style="fill: var(--color7, #9d9d9c)" d="M62.089 32.327h5.575v-4.241h-5.575z"></path>
            <path fill="#000" style="fill: var(--color5, #000)"
                d="M56.433 21.015h7.887l3.344 4.612h-7.887l-3.344-4.612z"></path>
            <path fill="#f7ce8f" style="fill: var(--color6, #f7ce8f)" d="M62.089 32.327h0.326v-4.241h-0.326z"></path>
            <path fill="#415680" style="fill: var(--color8, #415680)"
                d="M62.415 28.179h5.249v-0.093h-5.249zM62.415 28.525h5.249v-0.093h-5.249zM62.415 28.87h5.249v-0.093h-5.249zM62.415 29.216h5.249v-0.093h-5.249zM62.415 29.562h5.249v-0.093h-5.249zM62.415 29.907h5.249v-0.093h-5.249zM62.415 30.253h5.249v-0.093h-5.249zM62.415 30.599h5.249v-0.093h-5.249zM62.415 30.944h5.249v-0.093h-5.249zM62.415 31.29h5.249v-0.093h-5.249zM62.415 31.636h5.249v-0.093h-5.249zM62.415 31.981h5.249v-0.093h-5.249z">
            </path>
            <path fill="#2e3e5c" style="fill: var(--color9, #2e3e5c)" d="M54.502 31.093h1.407v-4.241h-1.407z"></path>
            <path fill="#f7ce8f" style="fill: var(--color6, #f7ce8f)" d="M54.502 31.093h0.325v-4.241h-0.325z"></path>
            <path fill="#2e3e5c" style="fill: var(--color9, #2e3e5c)" d="M56.957 32.327h1.407v-5.474h-1.407z"></path>
            <path fill="#f7ce8f" style="fill: var(--color6, #f7ce8f)"
                d="M56.957 32.327h0.325v-5.474h-0.325zM62.531 25.627h2.378v-3.167h-2.378z"></path>
            <path fill="#2e3e5c" style="fill: var(--color9, #2e3e5c)" d="M63.017 25.627h1.406v-2.283h-1.406z"></path>
            <path fill="#fff" style="fill: var(--color10, #fff)" d="M64.093 25.627h0.33v-2.283h-0.33z"></path>
            <path fill="#000" style="fill: var(--color5, #000)" d="M62.531 22.459h-2.174l2.174 3.167v-3.167z"></path>
            <path fill="#36a9e1" style="fill: var(--color11, #36a9e1)"
                d="M55.142 31.093h0.766v-3.545h-0.766zM57.597 32.327h0.767v-4.779h-0.767z"></path>
            <path fill="#fff" style="fill: var(--color10, #fff)"
                d="M57.283 28.272h1.081v-0.186h-1.081zM54.827 28.272h1.081v-0.186h-1.081z"></path>
            <path fill="#36a9e1" style="fill: var(--color11, #36a9e1)" d="M63.327 25.627h0.766v-1.588h-0.766z"></path>
            <path fill="#fff" style="fill: var(--color10, #fff)"
                d="M49.477 32.327h-0.139v-1.512h0.222l-0.083 1.512zM50.318 32.327h-0.132l-0.24-1.512h0.222l0.15 1.512z">
            </path>
            <path fill="#fff" style="fill: var(--color10, #fff)"
                d="M50.32 29.522h-0.116l-0.258 1.294h0.222l0.152-1.294zM49.338 31.096h0.83v-0.281h-0.83z"></path>
            <path fill="#fff" style="fill: var(--color10, #fff)"
                d="M49.761 31.096h0.608v-0.281h-0.608zM45.894 32.327h-0.139v-1.512h0.222l-0.083 1.512zM46.735 32.327h-0.132l-0.24-1.512h0.222l0.15 1.512z">
            </path>
            <path fill="#fff" style="fill: var(--color10, #fff)"
                d="M46.737 29.522h-0.116l-0.258 1.294h0.222l0.153-1.294zM45.755 31.096h0.83v-0.281h-0.83z"></path>
            <path fill="#fff" style="fill: var(--color10, #fff)"
                d="M45.448 31.096h4.312v-0.281h-4.312zM46.193 29.802h4.312l0.051-0.281h-4.312l-0.051 0.281zM46.115 30.234h4.313l0.051-0.281h-4.312l-0.051 0.281z">
            </path>
            <path fill="#000" style="fill: var(--color5, #000)"
                d="M48.117 23.125c-0.174-0.281-0.526-0.549-0.971-0.614-0.743-0.109-0.488-0.933-1.134-1.151-0.681-0.23-0.738 0.318-2.48-0.671-0.487-0.277-1.39-0.363-1.791 0.162-0.235 0.308-0.292 0.755-0.223 1.127 0.066 0.358 0.334 0.876 0.043 1.198-0.276 0.306-0.762 0.209-1.099 0.403-0.342 0.197-0.474 0.596-0.479 0.972-0.012 0.877 0.364 1.823 0.92 2.493 1.16 1.395 3.25 1.728 4.9 1.128 0.975-0.355 1.738-1.078 2.183-2.014 0.424-0.89 0.682-2.14 0.13-3.033z">
            </path>
            <path fill="#000" style="fill: var(--color5, #000)"
                d="M45.531 21.3c-0.368 0.017-0.751 0.099-1.999-0.61-0.487-0.276-1.389-0.363-1.791 0.162-0.234 0.308-0.292 0.755-0.223 1.127 0.066 0.358 0.334 0.876 0.043 1.198-0.276 0.306-0.762 0.209-1.099 0.403-0.342 0.197-0.474 0.596-0.479 0.971-0.013 0.877 0.363 1.824 0.92 2.493 0.056 0.068 0.111 0.128 0.167 0.187l-0.001-0.001c2.095 1.142 0.578-2.339 1.277-2.971 0.443-0.4 1.308 0.167 1.701-0.114 0.196-0.14 0.18-0.418 0.028-0.629-0.471-0.651-1.228-1.343-0.854-1.737 0.2-0.211 0.598-0.095 1.349-0.093 0.867 0.002 1.314-0.221 0.961-0.386z">
            </path>
            <path fill="#2e3e5c" style="fill: var(--color9, #2e3e5c)"
                d="M44.593 32.327h-0.429l-0.017-2.828-0.47-4.4 0.112-0.143 0.613 4.294 0.437-2.826 0.105 0.11-0.429 3.215 0.079 2.579z">
            </path>
            <path fill="#2e3e5c" style="fill: var(--color9, #2e3e5c)"
                d="M45.709 26.191l-1.001 1.479v-0.122l0.944-1.416 0.057 0.058zM43.965 27.343l-0.853-1.157 0.047-0.053 0.824 1.068-0.018 0.142zM44.175 24.879l-0.252 1.391-0.056-0.137 0.25-1.271 0.057 0.017z">
            </path>
            <path fill="#000" style="fill: var(--color5, #000)"
                d="M82.153 32.327c-0.219-0.53-1.31-1.571-2.694-1.289-1.512 0.308-1.844-0.364-2.467-0.643-1.141-0.512-1.703 0.758-2.416 0.105-0.996-0.911-1.803-1.004-2.446-0.164-0.925 1.207-2.441-0.13-2.781 1.991h12.805z">
            </path>
            <path fill="#000" style="fill: var(--color5, #000)"
                d="M79.577 32.327h-5.768c0.033-1.768 0.497-0.633 0.497-0.633s0.153-1.292 0.49-1.345c0.319-0.050 0.469 1.268 0.469 1.268s0.347-1.882 0.805-1.955c0.402-0.064 0.086 1.744 0.086 1.744s0.236-0.186 0.575-0.2c0.377-0.015 0.223 0.352 0.223 0.352s0.471-0.818 0.781-0.802c0.388 0.019 0.121 0.848 0.121 0.848s0.285-0.273 0.585-0.311c0.586-0.075-0.036 0.676-0.036 0.676s0.416-0.17 1.132-0.279c0.699-0.106 0.554 0.294 0.040 0.637z">
            </path>
            <path fill="#000" style="fill: var(--color5, #000)"
                d="M78.786 22.449c0.017-1.051-0.916-1.382-1.822-1.088-0.685 0.222-0.74 0.318-2.475-0.671-0.485-0.277-1.387-0.363-1.792 0.162-0.237 0.308-0.297 0.755-0.231 1.127 0.064 0.358 0.328 0.876 0.035 1.198-0.278 0.306-0.764 0.209-1.102 0.403-0.343 0.197-0.478 0.596-0.486 0.972-0.019 0.877 0.313 1.856 0.902 2.493 1.186 1.285 3.272 1.781 5.199 1.29 4.25-1.083 2.651-3.371 2.153-3.977-0.536-0.652-0.393-1.183-0.382-1.908z">
            </path>
            <path fill="#000" style="fill: var(--color5, #000)"
                d="M77.017 21.345c-0.017 0.005-0.035 0.010-0.053 0.016-0.685 0.221-0.74 0.318-2.475-0.671-0.485-0.276-1.387-0.363-1.791 0.162-0.237 0.308-0.298 0.755-0.232 1.127 0.064 0.358 0.328 0.876 0.035 1.198-0.278 0.306-0.764 0.209-1.102 0.403-0.344 0.197-0.478 0.596-0.487 0.971-0.018 0.877 0.35 1.824 0.902 2.493 0.076 0.092 0.151 0.174 0.23 0.253l0 0c1.903 1.158-0.076-1.344 1.495-2.377 0.777-0.512 2.276-1.049 1.623-1.863-0.477-0.595-0.838-0.827-0.693-1.154 0.080-0.181 0.313-0.35 1.050-0.216 1.008 0.184 1.744-0.174 1.497-0.341z">
            </path>
            <path fill="#2e3e5c" style="fill: var(--color9, #2e3e5c)"
                d="M75.376 32.327h0.43l-0.038-2.828 0.092-4.62-0.111-0.143-0.234 4.514-0.635-2.774-0.106 0.11 0.625 3.163-0.022 2.579z">
            </path>
            <path fill="#2e3e5c" style="fill: var(--color9, #2e3e5c)"
                d="M76.492 25.523l-0.73 1.091-0.002 0.217 0.807-1.243-0.076-0.065zM75.407 25.109l0.32 0.649-0.001 0.14-0.367-0.769 0.049-0.020zM74.434 26.845l0.538 0.482 0.044 0.123-0.628-0.572 0.046-0.034z">
            </path>
            <path fill="#3fc3d1" style="fill: var(--color12, #3fc3d1)"
                d="M73.514 32.327c-0.148-0.37-0.301-0.639-0.426-0.609-0.123 0.030-0.157 0.276-0.144 0.609h0.569z">
            </path>
            <path fill="#000" style="fill: var(--color5, #000)"
                d="M68.62 16.31c0 1.073-0.87 1.944-1.944 1.944s-1.944-0.87-1.944-1.944c0-1.073 0.87-1.944 1.944-1.944s1.944 0.87 1.944 1.944z">
            </path>
            <path fill="#fff" style="fill: var(--color10, #fff)"
                d="M68.62 16.31c0 1.073-0.87 1.944-1.944 1.944s-1.944-0.87-1.944-1.944c0-1.073 0.87-1.944 1.944-1.944s1.944 0.87 1.944 1.944z">
            </path>
            <path fill="#b6eceb" style="fill: var(--color13, #b6eceb)"
                d="M66.704 15.437l-0.563 0.676h1.127l-0.563-0.676z"></path>
            <path fill="#000" style="fill: var(--color5, #000)"
                d="M57.070 15.746c0 1.198-0.971 2.169-2.169 2.169s-2.169-0.971-2.169-2.169c0-1.198 0.971-2.169 2.169-2.169s2.169 0.971 2.169 2.169z">
            </path>
            <path fill="#fff" style="fill: var(--color10, #fff)"
                d="M57.070 15.746c0 1.198-0.971 2.169-2.169 2.169s-2.169-0.971-2.169-2.169c0-1.198 0.971-2.169 2.169-2.169s2.169 0.971 2.169 2.169z">
            </path>
            <path fill="#007ace" style="fill: var(--color14, #007ace)" d="M54.93 14.761l-0.62 0.732h1.239l-0.62-0.732z">
            </path>
            <path fill="#000" style="fill: var(--color5, #000)" opacity="0.5"
                d="M58.079 9.913c0 0.839-0.68 1.518-1.518 1.518s-1.518-0.68-1.518-1.518c0-0.839 0.68-1.518 1.518-1.518s1.518 0.68 1.518 1.518z">
            </path>
            <path fill="#fff" style="fill: var(--color10, #fff)" opacity="0.5"
                d="M58.079 9.913c0 0.839-0.68 1.518-1.518 1.518s-1.518-0.68-1.518-1.518c0-0.839 0.68-1.518 1.518-1.518s1.518 0.68 1.518 1.518z">
            </path>
            <path fill="#007ace" style="fill: var(--color14, #007ace)" opacity="0.5"
                d="M56.58 9.223l-0.434 0.513h0.868l-0.434-0.513z"></path>
            <path fill="#000" style="fill: var(--color5, #000)"
                d="M61.993 12.743c0 0.97-0.787 1.757-1.757 1.757s-1.757-0.787-1.757-1.757c0-0.97 0.787-1.757 1.757-1.757s1.757 0.787 1.757 1.757z">
            </path>
            <path fill="#fff" style="fill: var(--color10, #fff)"
                d="M61.993 12.743c0 0.97-0.787 1.757-1.757 1.757s-1.757-0.787-1.757-1.757c0-0.97 0.787-1.757 1.757-1.757s1.757 0.787 1.757 1.757z">
            </path>
            <path fill="#ffc48b" style="fill: var(--color15, #ffc48b)"
                d="M60.282 11.944l-0.507 0.563h0.958l-0.451-0.563z"></path>
            <path fill="#000" style="fill: var(--color5, #000)" opacity="0.5"
                d="M67.514 11.278c0 0.97-0.787 1.757-1.757 1.757s-1.757-0.787-1.757-1.757c0-0.97 0.787-1.757 1.757-1.757s1.757 0.787 1.757 1.757z">
            </path>
            <path fill="#fff" style="fill: var(--color10, #fff)" opacity="0.5"
                d="M67.514 11.278c0 0.97-0.787 1.757-1.757 1.757s-1.757-0.787-1.757-1.757c0-0.97 0.787-1.757 1.757-1.757s1.757 0.787 1.757 1.757z">
            </path>
            <path fill="#ffc48b" style="fill: var(--color15, #ffc48b)" opacity="0.5"
                d="M65.803 10.479l-0.507 0.563h0.958l-0.451-0.563z"></path>
            <path fill="#000" style="fill: var(--color5, #000)"
                d="M64.958 8.394c0 0.84-0.681 1.521-1.521 1.521s-1.521-0.681-1.521-1.521c0-0.84 0.681-1.521 1.521-1.521s1.521 0.681 1.521 1.521z">
            </path>
            <path fill="#fff" style="fill: var(--color10, #fff)"
                d="M64.958 8.394c0 0.84-0.681 1.521-1.521 1.521s-1.521-0.681-1.521-1.521c0-0.84 0.681-1.521 1.521-1.521s1.521 0.681 1.521 1.521z">
            </path>
            <path fill="#95cdb1" style="fill: var(--color16, #95cdb1)"
                d="M63.437 7.718l-0.451 0.507h0.845l-0.394-0.507z"></path>
        </symbol>
        <symbol id="icon-home-1" viewBox="0 0 36 32">
            <path fill="none" stroke="#2a5082" style="stroke: var(--color17, #2a5082)" stroke-linejoin="miter"
                stroke-linecap="butt" stroke-miterlimit="4" stroke-width="0.5818"
                d="M9.394 10.159h14.367v21.551h-14.367z"></path>
            <path fill="#e9eaeb" style="fill: var(--color18, #e9eaeb); stroke: var(--color17, #2a5082)" stroke="#2a5082"
                stroke-linejoin="miter" stroke-linecap="butt" stroke-miterlimit="4" stroke-width="0.5818"
                d="M11.052 7.396h11.051v2.763h-11.051zM15.472 27.289h3.315v4.42h-3.315z"></path>
            <path fill="none" stroke="#2a5082" style="stroke: var(--color17, #2a5082)" stroke-linejoin="miter"
                stroke-linecap="butt" stroke-miterlimit="4" stroke-width="0.5818"
                d="M12.157 17.895v-2.763h2.763v2.763M12.157 22.315v-2.763h2.763v2.763M3.868 17.895h5.526v13.814h-5.526z">
            </path>
            <path fill="#e9eaeb" style="fill: var(--color18, #e9eaeb); stroke: var(--color17, #2a5082)" stroke="#2a5082"
                stroke-linejoin="miter" stroke-linecap="butt" stroke-miterlimit="4" stroke-width="0.5818"
                d="M5.526 15.132h3.868v2.763h-3.868z"></path>
            <path fill="#c1f6fd" style="fill: var(--color19, #c1f6fd); stroke: var(--color17, #2a5082)" stroke="#2a5082"
                stroke-linejoin="miter" stroke-linecap="butt" stroke-miterlimit="4" stroke-width="0.5818"
                d="M23.802 14.027c-3.335 0-6.038 2.703-6.038 6.038 0 5.211 5.149 5.915 5.582 11.213 0.019 0.241 0.214 0.431 0.456 0.431s0.436-0.19 0.455-0.431c0.433-5.298 5.583-6.003 5.583-11.213 0.001-3.335-2.703-6.038-6.037-6.038z">
            </path>
            <path fill="#fff" style="fill: var(--color10, #fff); stroke: var(--color17, #2a5082)" stroke="#2a5082"
                stroke-linejoin="miter" stroke-linecap="butt" stroke-miterlimit="4" stroke-width="0.5818"
                d="M25.971 20.105c0 1.221-0.99 2.21-2.21 2.21s-2.21-0.99-2.21-2.21c0-1.221 0.99-2.21 2.21-2.21s2.21 0.99 2.21 2.21z">
            </path>
            <path fill="none" stroke="#2a5082" style="stroke: var(--color17, #2a5082)" stroke-linejoin="miter"
                stroke-linecap="butt" stroke-miterlimit="4" stroke-width="0.5818" d="M2.21 31.709h27.629"></path>
            <path fill="none" stroke="#2a5082" style="stroke: var(--color17, #2a5082)" stroke-linejoin="miter"
                stroke-linecap="butt" stroke-miterlimit="4" stroke-width="0.5818"
                d="M1.105 31.709h-1.105M30.944 31.709h2.211M34.26 31.709h1.105"></path>
        </symbol>
        <symbol id="icon-home-2" viewBox="0 0 33 32">
            <path fill="#e9eaeb" style="fill: var(--color18, #e9eaeb)"
                d="M26.615 18.897c0 6.374-5.167 11.541-11.541 11.541s-11.541-5.167-11.541-11.541c0-6.374 5.167-11.541 11.541-11.541s11.541 5.167 11.541 11.541z">
            </path>
            <path fill="#c1f6fd" style="fill: var(--color19, #c1f6fd)"
                d="M15.901 23.872c-0.338-0.945-1.226-1.609-2.27-1.609-0 0-0 0-0 0h-3.366v-3.366l0.962 0.962h3.366c2.2 0 1.924-2.404 1.924-2.404h-3.366l-3.366-3.366h-1.924c-1.062 0-1.923 0.861-1.923 1.924v7.213c0 1.593 1.292 2.885 2.885 2.885h4.328l2.885 5.771h2.668l-2.802-8.008z">
            </path>
            <path fill="#fff" style="fill: var(--color10, #fff); stroke: var(--color17, #2a5082)" stroke="#2a5082"
                stroke-linejoin="miter" stroke-linecap="butt" stroke-miterlimit="4" stroke-width="0.5517"
                d="M9.303 12.6c-1.343 0-2.404-1.098-2.404-2.454v-0.818c0-1.355 1.062-2.454 2.404-2.454s2.404 1.098 2.404 2.454v0.818c-0 1.355-1.062 2.454-2.404 2.454z">
            </path>
            <path fill="#fff" style="fill: var(--color10, #fff); stroke: var(--color17, #2a5082)" stroke="#2a5082"
                stroke-linejoin="miter" stroke-linecap="butt" stroke-miterlimit="4" stroke-width="0.5517"
                d="M22.287 16.011h-1.442v-10.098h1.442c0.531 0 0.962 0.431 0.962 0.962v0 8.175c0 0.531-0.43 0.962-0.962 0.962v0z">
            </path>
            <path fill="none" stroke="#2a5082" style="stroke: var(--color17, #2a5082)" stroke-linejoin="miter"
                stroke-linecap="butt" stroke-miterlimit="4" stroke-width="0.5517"
                d="M3.13 31.675h25.284M28.814 31.675h2.023M31.54 31.675h1.011M1.334 31.675h1.011"></path>
            <path fill="none" stroke="#bcc0c4" style="stroke: var(--color20, #bcc0c4)" stroke-linejoin="miter"
                stroke-linecap="butt" stroke-miterlimit="4" stroke-width="0.5517"
                d="M31.577 3.299c0 0.619-0.502 1.121-1.121 1.121s-1.121-0.502-1.121-1.121c0-0.619 0.502-1.121 1.121-1.121s1.121 0.502 1.121 1.121z">
            </path>
        </symbol>
        <symbol id="icon-home-3" viewBox="0 0 32 32">
            <path fill="none" stroke="#2a5082" style="stroke: var(--color17, #2a5082)" stroke-linejoin="miter"
                stroke-linecap="butt" stroke-miterlimit="4" stroke-width="0.5565"
                d="M2.044 31.672h25.504M27.952 31.672h2.041M30.702 31.672h1.020M0.232 31.672h1.020"></path>
            <path fill="#e9eaeb" style="fill: var(--color18, #e9eaeb)"
                d="M9.938 25.838c-0.882 0-1.597-0.715-1.598-1.597v-14.079c-3.316 1.679-5.591 5.117-5.591 9.088 0 5.624 4.559 10.183 10.183 10.183 3.11 0 5.893-1.396 7.761-3.594l-10.756-0z">
            </path>
            <path fill="none" stroke="#2a5082" style="stroke: var(--color17, #2a5082)" stroke-linejoin="miter"
                stroke-linecap="butt" stroke-miterlimit="4" stroke-width="0.5565"
                d="M17.525 25.838h-7.587c-0.882 0-1.597-0.715-1.598-1.597v-17.571c0-0.882 0.715-1.598 1.598-1.598h13.178c0.882 0 1.597 0.715 1.597 1.597 0 0 0 0 0 0v-0 10.382">
            </path>
            <path fill="none" stroke="#2a5082" style="stroke: var(--color17, #2a5082)" stroke-linejoin="miter"
                stroke-linecap="butt" stroke-miterlimit="4" stroke-width="0.5565"
                d="M15.928 22.643h-5.99v-14.376h13.178v8.785"></path>
            <path fill="#fff" style="fill: var(--color10, #fff)"
                d="M25.113 19.049h-0.799c0-0.449-0.424-0.799-0.799-0.799h-0.799c-0.153-0.24-0.547-0.4-0.799-0.4h-0.799v-2.795c0-0.441-0.358-0.799-0.799-0.799s-0.799 0.358-0.799 0.799v0 5.99l-0.533 0.512-1.043-1.618c-0.64-0.88-1.618-0.386-1.618 0 0 0 1.212 3.866 1.385 4.137 0.279 0.437 1.41 1.419 1.41 1.76v1.598h5.99v-1.198c0-0.538 0.799-1.188 0.799-1.997v-4.393c-0-0.449-0.424-0.799-0.799-0.799z">
            </path>
            <path fill="#c1f6fd" style="fill: var(--color19, #c1f6fd)" d="M18.324 27.036h7.587v4.501h-7.587z"></path>
            <path fill="#fff" style="fill: var(--color10, #fff); stroke: var(--color17, #2a5082)" stroke="#2a5082"
                stroke-linejoin="miter" stroke-linecap="butt" stroke-miterlimit="4" stroke-width="0.5565"
                d="M16.335 13.858h-4.792l-0.008-3.993h4.792z"></path>
        </symbol>
        <symbol id="icon-house-solid" viewBox="0 0 36 32">
            <path
                d="M35.987 15.969c0 1.125-0.938 2.006-2 2.006h-2l0.044 10.012c0 0.169-0.013 0.337-0.031 0.506v1.006c0 1.381-1.119 2.5-2.5 2.5h-1c-0.069 0-0.137 0-0.206-0.006-0.087 0.006-0.175 0.006-0.262 0.006h-3.531c-1.381 0-2.5-1.119-2.5-2.5v-5.5c0-1.106-0.894-2-2-2h-4c-1.106 0-2 0.894-2 2v5.5c0 1.381-1.119 2.5-2.5 2.5h-3.494c-0.094 0-0.188-0.006-0.281-0.012-0.075 0.006-0.15 0.012-0.225 0.012h-1c-1.381 0-2.5-1.119-2.5-2.5v-7c0-0.056 0-0.119 0.006-0.175v-4.35h-2.006c-1.125 0-2-0.875-2-2.006 0-0.563 0.188-1.063 0.625-1.5l16.025-13.969c0.438-0.438 0.938-0.5 1.375-0.5s0.938 0.125 1.313 0.438l15.962 14.031c0.5 0.438 0.75 0.938 0.688 1.5z">
            </path>
        </symbol>
        <symbol id="icon-linked-in" viewBox="0 0 32 32">
            <path fill="#6b7c93" style="fill: var(--color1, #6b7c93)"
                d="M0 16c0-8.837 7.163-16 16-16s16 7.163 16 16-7.163 16-16 16-16-7.163-16-16zM24.242 17.297c0-3.2-1.567-4.69-3.657-4.69-1.687 0-2.441 1.013-2.863 1.721v0.035h-0.020l0.020-0.035v-1.477h-3.177c0.043 0.978 0 10.422 0 10.422h3.177v-5.821c0-0.312 0.021-0.621 0.106-0.844 0.23-0.623 0.752-1.267 1.629-1.267 1.15 0 1.61 0.956 1.61 2.356v5.576h3.176v-5.976zM10.678 7.758c-1.179 0-1.951 0.838-1.951 1.939 0 1.076 0.75 1.939 1.906 1.939h0.022c1.202 0 1.95-0.863 1.95-1.939-0.023-1.102-0.748-1.939-1.928-1.939zM8.727 22.303h2.909v-9.697h-2.909v9.697z">
            </path>
        </symbol>
        <symbol id="icon-logo" viewBox="0 0 182 32" width="185" height="39">
            <g fill="none" fill-rule="evenodd">
                <text fill="#454F5B" font-family="ArialRoundedMTBold, Arial Rounded MT Bold" font-size="24">
                    <tspan x="80" y="29">FairRate</tspan>
                </text>
                <path fill="#4AD5F6" d="M27 6l27 33H0L27 6zm-4 27h8V22h-8v11z" />
                <path fill="#95CDB1" d="M54 0L40 16h27L54 0" />
                <path fill="#FFC48B" d="M69 18L55 34h27L69 18" />
            </g>
        </symbol>
        <symbol id="icon-cirlce-right-regular" viewBox="0 0 512 512" fill="#c4cdd5">
            <path
                d="M280.2 150.2C273.1 143.8 262.1 142.2 254.3 146.1S239.1 158.5 239.1 167.1l.002 56L152 224C138.8 224 128 234.8 128 248v16C128 277.3 138.8 288 152 288L240 287.1v56c0 9.531 5.656 18.16 14.38 22c8.75 3.812 18.91 2.094 25.91-4.375l96-88.75C381.2 268.3 384 261.9 384 255.2c-.3125-7.781-2.875-13.25-7.844-17.75L280.2 150.2zM256 0C114.6 0 0 114.6 0 256s114.6 256 256 256s256-114.6 256-256S397.4 0 256 0zM256 464c-114.7 0-208-93.31-208-208S141.3 48 256 48s208 93.31 208 208S370.7 464 256 464z" />
        </symbol>
        <symbol id="icon-tick" viewBox="0 0 512 512">
            <path
                d="M243.8 339.8C232.9 350.7 215.1 350.7 204.2 339.8L140.2 275.8C129.3 264.9 129.3 247.1 140.2 236.2C151.1 225.3 168.9 225.3 179.8 236.2L224 280.4L332.2 172.2C343.1 161.3 360.9 161.3 371.8 172.2C382.7 183.1 382.7 200.9 371.8 211.8L243.8 339.8zM512 256C512 397.4 397.4 512 256 512C114.6 512 0 397.4 0 256C0 114.6 114.6 0 256 0C397.4 0 512 114.6 512 256zM256 48C141.1 48 48 141.1 48 256C48 370.9 141.1 464 256 464C370.9 464 464 370.9 464 256C464 141.1 370.9 48 256 48z" />
        </symbol>
        <symbol id="icon-page-1" viewBox="0 0 32 32">
            <path fill="#919eab" style="fill: var(--color21, #919eab)" opacity="0.7"
                d="M22.967 19.301c-0.571 0-1.074 0.126-1.481 0.389-1.209 0.775-2.171 1.374-2.635 1.374-0.256 0-0.528-0.229-1.127-0.745l-0.101-0.091c-1.664-1.445-2.018-1.817-2.663-2.491l-0.165-0.171c-0.119-0.119-0.217-0.229-0.32-0.327-0.562-0.583-0.971-1.001-2.416-2.638l-0.064-0.071c-0.69-0.782-1.143-1.291-1.173-1.664-0.027-0.366 0.29-0.955 1.099-2.055 0.983-1.326 1.019-2.965 0.119-4.864-0.718-1.499-1.89-2.937-2.926-4.199l-0.091-0.11c-0.891-1.090-1.927-1.637-3.081-1.637-1.282 0-2.345 0.69-2.91 1.054-0.046 0.027-0.091 0.064-0.137 0.091-1.262 0.8-2.181 1.899-2.526 3.017-0.519 1.682-0.864 3.863 1.618 8.402 2.144 3.927 4.091 6.562 7.179 9.737 2.91 2.981 4.201 3.943 7.090 6.034 3.218 2.327 6.309 3.664 8.473 3.664 2.009 0 3.589 0 5.845-2.72 2.363-2.853 1.381-4.599-0.037-6.062-1.326-1.365-5.099-3.918-7.573-3.918z">
            </path>
        </symbol>
        <symbol id="icon-twitter" viewBox="0 0 32 32">
            <path fill="#6b7c93" style="fill: var(--color1, #6b7c93)"
                d="M0 16c0-8.837 7.163-16 16-16s16 7.163 16 16-7.163 16-16 16-16-7.163-16-16zM25.212 10.448c-0.598 0.28-1.292 0.483-2.021 0.574l-0.034 0.004c0.743-0.465 1.3-1.17 1.567-2.005l0.007-0.026c-0.654 0.405-1.416 0.714-2.23 0.884l-0.046 0.008c-0.648-0.713-1.578-1.16-2.613-1.161h-0c-1.977 0-3.58 1.645-3.58 3.672 0 0.288 0.031 0.568 0.092 0.837-2.975-0.153-5.614-1.615-7.379-3.838-0.308 0.542-0.485 1.173-0.485 1.846 0 1.275 0.633 2.399 1.593 3.057-0.6-0.021-1.156-0.19-1.639-0.471l0.017 0.009v0.047c0 1.779 1.235 3.264 2.872 3.601-0.301 0.083-0.617 0.129-0.944 0.129-0.231 0-0.456-0.023-0.674-0.068 0.456 1.459 1.777 2.521 3.344 2.55-1.204 0.98-2.755 1.573-4.446 1.573-0.301 0-0.598-0.019-0.889-0.055l0.035 0.004c1.543 1.035 3.442 1.651 5.486 1.651 0.001 0 0.002 0 0.003 0h-0c6.587 0 10.187-5.597 10.187-10.451l-0.012-0.475c0.708-0.524 1.303-1.153 1.774-1.87l0.017-0.027z">
            </path>
        </symbol>
    </defs>
</svg>