<svg aria-hidden="true" style="position: absolute; width: 0; height: 0; overflow: hidden;" version="1.1" xmlns="http://www.w3.org/2000/svg" xmlns:xlink="http://www.w3.org/1999/xlink">
<defs>
<symbol id="icon-file-pdf-solid" viewBox="0 0 24 32" fill="#BA3B46">
<path d="M4 0c-2.206 0-4 1.794-4 4v24c0 2.206 1.794 4 4 4h16c2.206 0 4-1.794 4-4v-18h-8c-1.106 0-2-0.894-2-2v-8h-10zM16 0v8h8l-8-8zM4 14h1.5c1.931 0 3.5 1.569 3.5 3.5s-1.569 3.5-3.5 3.5h-0.5v2c0 0.55-0.45 1-1 1s-1-0.45-1-1v-8c0-0.55 0.45-1 1-1zM5.5 19c0.831 0 1.5-0.669 1.5-1.5s-0.669-1.5-1.5-1.5h-0.5v3h0.5zM10 15c0-0.55 0.45-1 1-1h1.5c1.656 0 3 1.344 3 3v4c0 1.656-1.344 3-3 3h-1.5c-0.55 0-1-0.45-1-1v-8zM12 22h0.5c0.55 0 1-0.45 1-1v-4c0-0.55-0.45-1-1-1h-0.5v6zM18 14h3c0.55 0 1 0.45 1 1s-0.45 1-1 1h-2v2h2c0.55 0 1 0.45 1 1s-0.45 1-1 1h-2v3c0 0.55-0.45 1-1 1s-1-0.45-1-1v-8c0-0.55 0.45-1 1-1z"></path>
</symbol>
<symbol id="icon-folder-open-solid" viewBox="0 0 576 512">
    <path
        d="M88.7 223.8L0 375.8V96C0 60.7 28.7 32 64 32H181.5c17 0 33.3 6.7 45.3 18.7l26.5 26.5c12 12 28.3 18.7 45.3 18.7H416c35.3 0 64 28.7 64 64v32H144c-22.8 0-43.8 12.1-55.3 31.8zm27.6 16.1C122.1 230 132.6 224 144 224H544c11.5 0 22 6.1 27.7 16.1s5.7 22.2-.1 32.1l-112 192C453.9 474 443.4 480 432 480H32c-11.5 0-22-6.1-27.7-16.1s-5.7-22.2 .1-32.1l112-192z" />
</symbol>
<symbol id="icon-sparrow-solid" viewBox="0 0 338.2 338.2" style="enable-background:new 0 0 338.2 338.2;" >
     <path d="M289.9,70.4C310.5,59.2,314.1,57,314,54.8c0-0.5-0.3-1.2-1.3-1.6c-2-0.9-4-1.5-5.9-2c-3.9-1.1-7.3-2-10.5-5.9 c-1.5-1.8-3.2-5.1-5.1-8.9C285.1,24.3,275.8,6,255.8,1.2c-3.3-0.8-6.7-1.2-10-1.2c-12.3,0-23.4,5.4-32.3,15.6 c-9.9,11.4-16.4,27.9-19.2,49c-3.6,26.5-42.2,76.7-65.2,106.7c-7.8,10.2-14,18.2-16.4,22.2c-8.9,14.7-25.6,34.1-39,49.7 c-15.5,18-23.6,27.5-23.2,31.1c0.1,0.7,0.4,1.1,0.7,1.3c0.4,0.3,0.9,0.5,1.5,0.5c4.9,0,21.4-12.1,36.7-24.1 c-10.4,10.9-23.7,25.8-36.7,40.3c-4,4.5-8,8.9-11.8,13.1c-11.7,13-18.1,24-16.3,28.1c0.5,1,1.4,1.6,2.6,1.6c3.3,0,8.4-4,12.1-7.4 c6.6-6.1,10.5-8.4,12-8.5c0,0.5-0.4,1.8-2.1,4.3c-4,5.8-5.5,10.7-4.3,13.1c0.5,1,1.4,1.5,2.6,1.5c2.4,0,6-2.4,9.9-6.8 c10.6-11.7,46.7-45.2,64-61.3c4.8-4.5,8-7.5,8.8-8.2c0.2-0.1,1-0.2,3.7-0.2c2.1,0,5,0.1,8.3,0.1c5.1,0.1,11.4,0.3,18.5,0.3 c0,0,0,0,0,0c3.4,0,6.6,0,9.9-0.1c0.1,3.1-0.1,6.8-1.2,7.6c-0.1,0.1-0.2,0.2-0.4,0.3c-1.2,0.8-4.2,2.7-8.6,7.7c-1.8,2-3.8,4.8-3,6.5 c0.3,0.6,0.9,1,1.6,1l0,0c0.8,0,1.9-0.5,2.9-1.5c7.3-6.9,16.7-10.9,25.8-10.9c1.4,0,2.8,0.1,4.1,0.3c6.1,0.8,7.2,1.3,9.2,2.2 c0.9,0.4,2,0.9,3.9,1.5c0.8,0.3,1.6-0.2,1.7-0.9c0.3-1.8-3.4-6.9-6.6-8.1c-2.8-1.1-6-1.7-9.4-1.7c-3.6,0-6.8,0.6-9.1,1 c-1.1,0.2-2,0.4-2.6,0.4c-0.1-1.3,0-3.8,0-5.7c13.4-0.7,25.4-2.2,36.1-4.6c7.5,4.5,14.4,8.8,15.1,9.6c0.3,0.5-0.2,2.5-0.6,4.1 c-0.5,1.9-1.1,4-1.2,6.3c-0.2,3,0.9,5.6,1.9,6.7c0.5,0.5,1,0.8,1.5,0.8c0.4,0,1.5-0.2,1.6-2.1c0.2-2.9,4.3-12,7.5-15 c5.2-4.9,9.8-5.3,16.6-5.1c5.5,0.2,9.7,1.6,11.7,2.3c0.9,0.3,1.3,0.4,1.6,0.4l0,0c0.4,0,0.8-0.2,0.9-0.5l0.3-0.6l-0.3-0.5 c-0.7-1.2-4.5-5.9-10.5-7.6c-3.5-1-6.7-1.4-9.6-1.4c-5.6,0-9,1.7-11.5,3c-1.4,0.7-2.4,1.2-3.2,1.1c-1.2-0.2-4.8-2.2-9.3-4.7 c13.6-4.4,24.5-10.5,32.8-18.4c41.9-40,39.9-89,30.8-123.1c-2.5-9.3-5.7-16-8-20.9C278.1,80.8,276.6,77.7,289.9,70.4z"/> 
</symbol>
<symbol id="icon-file-image-solid" viewBox="0 0 384 512" fill="teal">
    <path
        d="M64 0C28.7 0 0 28.7 0 64V448c0 35.3 28.7 64 64 64H320c35.3 0 64-28.7 64-64V160H256c-17.7 0-32-14.3-32-32V0H64zM256 0V128H384L256 0zM128 256c0 17.7-14.3 32-32 32s-32-14.3-32-32s14.3-32 32-32s32 14.3 32 32zm88 32c5.3 0 10.2 2.6 13.2 6.9l88 128c3.4 4.9 3.7 11.3 1 16.5s-8.2 8.6-14.2 8.6H216 176 128 80c-5.8 0-11.1-3.1-13.9-8.1s-2.8-11.2 .2-16.1l48-80c2.9-4.8 8.1-7.8 13.7-7.8s10.8 2.9 13.7 7.8l12.8 21.4 48.3-70.2c3-4.3 7.9-6.9 13.2-6.9z" />
</symbol>
<symbol id="icon-images-solid" viewBox="0 0 576 512">
    <path
        d="M160 32c-35.3 0-64 28.7-64 64V320c0 35.3 28.7 64 64 64H512c35.3 0 64-28.7 64-64V96c0-35.3-28.7-64-64-64H160zM396 138.7l96 144c4.9 7.4 5.4 16.8 1.2 24.6S480.9 320 472 320H328 280 200c-9.2 0-17.6-5.3-21.6-13.6s-2.9-18.2 2.9-25.4l64-80c4.6-5.7 11.4-9 18.7-9s14.2 3.3 18.7 9l17.3 21.6 56-84C360.5 132 368 128 376 128s15.5 4 20 10.7zM256 128c0 17.7-14.3 32-32 32s-32-14.3-32-32s14.3-32 32-32s32 14.3 32 32zM48 120c0-13.3-10.7-24-24-24S0 106.7 0 120V344c0 75.1 60.9 136 136 136H456c13.3 0 24-10.7 24-24s-10.7-24-24-24H136c-48.6 0-88-39.4-88-88V120z" />
</symbol>
<symbol id="icon-file-solid" viewBox="0 0 24 32">
<path d="M0 4c0-2.206 1.794-4 4-4h10v8c0 1.106 0.894 2 2 2h8v18c0 2.206-1.794 4-4 4h-16c-2.206 0-4-1.794-4-4v-24zM24 8h-8v-8l8 8z"></path>
</symbol>
<symbol id="icon-file-word-solid" viewBox="0 0 24 32" fill="#007aff">
<path d="M4 0c-2.206 0-4 1.794-4 4v24c0 2.206 1.794 4 4 4h16c2.206 0 4-1.794 4-4v-18h-8c-1.106 0-2-0.894-2-2v-8h-10zM16 0v8h8l-8-8zM6.938 16.069l1.675 5.575 1.975-5.644c0.213-0.6 0.781-1.006 1.419-1.006s1.206 0.4 1.419 1.006l1.975 5.644 1.663-5.575c0.238-0.794 1.075-1.244 1.869-1.006s1.244 1.075 1.006 1.869l-3 10c-0.188 0.625-0.756 1.056-1.4 1.069s-1.238-0.387-1.45-1.006l-2.088-5.956-2.081 5.956c-0.213 0.613-0.8 1.019-1.45 1.006s-1.219-0.444-1.4-1.069l-3-10c-0.237-0.794 0.213-1.631 1.006-1.869s1.631 0.213 1.869 1.006z"></path>
</symbol>
<symbol id="icon-chevron-down-solid" viewBox="0 0 32 32">
<path d="M14.588 25.413c0.781 0.781 2.050 0.781 2.831 0l12-12c0.781-0.781 0.781-2.050 0-2.831s-2.050-0.781-2.831 0l-10.588 10.588-10.588-10.581c-0.781-0.781-2.050-0.781-2.831 0s-0.781 2.050 0 2.831l12 12z"></path>
</symbol>
<symbol id="icon-gear-solid" viewBox="0 0 32 32">
<path d="M30.994 10.412c0.2 0.544 0.031 1.15-0.4 1.537l-2.706 2.463c0.069 0.519 0.106 1.050 0.106 1.588s-0.038 1.069-0.106 1.587l2.706 2.462c0.431 0.387 0.6 0.994 0.4 1.538-0.275 0.744-0.606 1.456-0.988 2.144l-0.294 0.506c-0.413 0.688-0.875 1.337-1.381 1.95-0.369 0.45-0.981 0.6-1.531 0.425l-3.481-1.106c-0.837 0.644-1.762 1.181-2.75 1.587l-0.781 3.569c-0.125 0.569-0.563 1.019-1.137 1.113-0.863 0.144-1.75 0.219-2.656 0.219s-1.794-0.075-2.656-0.219c-0.575-0.094-1.012-0.544-1.137-1.113l-0.781-3.569c-0.988-0.406-1.912-0.944-2.75-1.587l-3.475 1.113c-0.55 0.175-1.162 0.019-1.531-0.425-0.506-0.613-0.969-1.262-1.381-1.95l-0.294-0.506c-0.381-0.688-0.713-1.4-0.988-2.144-0.2-0.544-0.031-1.15 0.4-1.538l2.706-2.462c-0.069-0.525-0.106-1.056-0.106-1.594s0.037-1.069 0.106-1.588l-2.706-2.463c-0.431-0.387-0.6-0.994-0.4-1.537 0.275-0.744 0.606-1.456 0.987-2.144l0.294-0.506c0.413-0.688 0.875-1.338 1.381-1.95 0.369-0.45 0.981-0.6 1.531-0.425l3.481 1.106c0.838-0.644 1.762-1.181 2.75-1.587l0.781-3.569c0.125-0.569 0.563-1.019 1.137-1.113 0.863-0.15 1.75-0.225 2.656-0.225s1.794 0.075 2.656 0.219c0.575 0.094 1.012 0.544 1.137 1.113l0.781 3.569c0.988 0.406 1.913 0.944 2.75 1.588l3.481-1.106c0.55-0.175 1.163-0.019 1.531 0.425 0.506 0.612 0.969 1.263 1.381 1.95l0.294 0.506c0.381 0.688 0.712 1.4 0.988 2.144zM16 21c2.762 0 5-2.238 5-5s-2.238-5-5-5-5 2.238-5 5 2.238 5 5 5z"></path>
</symbol>
<symbol id="icon-inbox-solid" viewBox="0 0 32 32">
<path d="M7.563 2c-1.838 0-3.438 1.25-3.881 3.031l-3.563 14.244c-0.081 0.319-0.119 0.644-0.119 0.969v5.756c0 2.206 1.794 4 4 4h24c2.206 0 4-1.794 4-4v-5.756c0-0.325-0.038-0.65-0.119-0.969l-3.563-14.244c-0.444-1.781-2.044-3.031-3.881-3.031h-16.875zM7.563 6h16.875l3 12h-3.2c-0.756 0-1.45 0.425-1.788 1.106l-0.894 1.788c-0.337 0.675-1.031 1.106-1.788 1.106h-7.531c-0.756 0-1.45-0.425-1.787-1.106l-0.894-1.788c-0.338-0.675-1.031-1.106-1.787-1.106h-3.206l3-12z"></path>
</symbol>
<symbol id="icon-magnifying-glass-solid" viewBox="0 0 32 32">
<path d="M26 13c0 2.869-0.931 5.519-2.5 7.669l7.913 7.919c0.781 0.781 0.781 2.050 0 2.831s-2.050 0.781-2.831 0l-7.912-7.919c-2.15 1.575-4.8 2.5-7.669 2.5-7.181 0-13-5.819-13-13s5.819-13 13-13 13 5.819 13 13zM13 22c4.969 0 9-4.031 9-9s-4.031-9-9-9-9 4.031-9 9 4.031 9 9 9z"></path>
</symbol>
<symbol id="icon-paperclip-solid" viewBox="0 0 32 32">
<path d="M24.762 5.237c-1.525-1.525-4-1.525-5.525 0l-11.5 11.5c-2.631 2.631-2.631 6.894 0 9.525s6.894 2.631 9.525 0l9.5-9.5c0.681-0.681 1.794-0.681 2.475 0s0.681 1.794 0 2.475l-9.5 9.5c-4 4-10.475 4-14.475 0s-4-10.475 0-14.475l11.5-11.5c2.894-2.894 7.581-2.894 10.475 0s2.894 7.581 0 10.475l-11 11c-1.787 1.788-4.688 1.788-6.475 0s-1.787-4.688 0-6.475l9-9c0.681-0.681 1.794-0.681 2.475 0s0.681 1.794 0 2.475l-9 9c-0.419 0.419-0.419 1.106 0 1.525s1.106 0.419 1.525 0l11-11c1.525-1.525 1.525-4 0-5.525z"></path>
</symbol>
<symbol id="icon-reply-solid" viewBox="0 0 32 32">
<path d="M12.813 2.175c0.719 0.319 1.188 1.038 1.188 1.825v4h7c6.075 0 11 4.925 11 11 0 7.081-5.094 10.244-6.262 10.881-0.156 0.087-0.331 0.119-0.506 0.119-0.681 0-1.231-0.556-1.231-1.231 0-0.469 0.269-0.9 0.613-1.219 0.587-0.55 1.387-1.65 1.387-3.544 0-3.313-2.688-6-6-6h-6v4c0 0.788-0.463 1.506-1.188 1.825s-1.563 0.188-2.15-0.337l-10-9c-0.419-0.387-0.662-0.925-0.662-1.494s0.244-1.106 0.662-1.488l10-9c0.588-0.531 1.431-0.663 2.15-0.337z"></path>
</symbol>
<symbol id="icon-square-caret-down-solid" viewBox="0 0 28 32">
<path d="M24 30c2.206 0 4-1.794 4-4v-20c0-2.206-1.794-4-4-4h-20c-2.206 0-4 1.794-4 4v20c0 2.206 1.794 4 4 4h20zM14 22c-0.419 0-0.813-0.175-1.1-0.481l-6.5-7c-0.406-0.438-0.513-1.075-0.275-1.619s0.781-0.9 1.375-0.9h13c0.594 0 1.137 0.356 1.375 0.9s0.131 1.181-0.275 1.619l-6.5 7c-0.281 0.306-0.681 0.481-1.1 0.481z"></path>
</symbol>
<symbol id="icon-star-regular" viewBox="0 0 36 32">
<path d="M17.994 0c0.575 0 1.1 0.328 1.35 0.845l4.288 8.83 9.581 1.419c0.563 0.081 1.025 0.475 1.206 1.012 0.175 0.544 0.031 1.137-0.369 1.531l-6.95 6.887 1.644 9.719c0.094 0.563-0.137 1.137-0.606 1.469-0.462 0.331-1.131 0.375-1.581 0.106l-8.563-4.575-8.613 4.575c-0.45 0.269-1.063 0.225-1.531-0.106-0.463-0.331-0.694-0.906-0.656-1.469l1.694-9.719-6.943-6.887c-0.404-0.394-0.547-0.988-0.369-1.531 0.177-0.537 0.644-0.931 1.206-1.012l9.576-1.419 4.287-8.83c0.256-0.517 0.775-0.845 1.35-0.845v0zM17.994 4.934l-3.281 6.766c-0.219 0.444-0.644 0.756-1.131 0.831l-7.395 1.088 5.37 5.319c0.344 0.344 0.5 0.837 0.419 1.319l-1.262 7.475 6.575-3.512c0.444-0.238 0.975-0.238 1.413 0l6.575 3.512-1.262-7.475c-0.081-0.481 0.081-0.975 0.425-1.319l5.369-5.319-7.394-1.088c-0.494-0.075-0.919-0.387-1.131-0.831l-3.288-6.766z"></path>
</symbol>
<symbol id="icon-star-solid" viewBox="0 0 36 32">
<path d="M19.806 1.125c-0.331-0.688-1.031-1.125-1.8-1.125s-1.462 0.438-1.8 1.125l-4.019 8.269-8.975 1.325c-0.75 0.113-1.375 0.637-1.606 1.356s-0.044 1.512 0.494 2.044l6.513 6.444-1.537 9.106c-0.125 0.75 0.188 1.512 0.806 1.956s1.438 0.5 2.113 0.144l8.019-4.281 8.019 4.281c0.675 0.356 1.494 0.306 2.113-0.144s0.931-1.206 0.806-1.956l-1.544-9.106 6.513-6.444c0.538-0.531 0.731-1.325 0.494-2.044s-0.856-1.244-1.606-1.356l-8.981-1.325-4.019-8.269z"></path>
</symbol>
<symbol id="icon-trash-can-solid" viewBox="0 0 28 32">
<path d="M8.45 1.106c0.338-0.681 1.031-1.106 1.787-1.106h7.525c0.756 0 1.45 0.425 1.788 1.106l0.45 0.894h6c1.106 0 2 0.894 2 2s-0.894 2-2 2h-24c-1.106 0-2-0.894-2-2s0.894-2 2-2h6l0.45-0.894zM2 8h24v20c0 2.206-1.794 4-4 4h-16c-2.206 0-4-1.794-4-4v-20zM8 12c-0.55 0-1 0.45-1 1v14c0 0.55 0.45 1 1 1s1-0.45 1-1v-14c0-0.55-0.45-1-1-1zM14 12c-0.55 0-1 0.45-1 1v14c0 0.55 0.45 1 1 1s1-0.45 1-1v-14c0-0.55-0.45-1-1-1zM20 12c-0.55 0-1 0.45-1 1v14c0 0.55 0.45 1 1 1s1-0.45 1-1v-14c0-0.55-0.45-1-1-1z"></path>
</symbol>
<symbol id="icon-user-regular" viewBox="0 0 28 32">
<path d="M17 19h-6c-6.075 0-11 4.925-11 11 0 1.104 0.896 2 2 2h24c1.104 0 2-0.896 2-2 0-6.075-4.925-11-11-11zM3.062 29c0.494-3.944 3.863-7 7.938-7h6c4.072 0 7.444 3.059 7.938 7h-21.876zM14 16c4.418 0 8-3.582 8-8s-3.582-8-8-8-8 3.582-8 8c0 4.419 3.581 8 8 8zM14 3c2.757 0 5 2.243 5 5s-2.243 5-5 5-5-2.244-5-5c0-2.757 2.244-5 5-5z"></path>
</symbol>
<symbol id="icon-arrow-back-outline" viewBox="0 0 24 24">
<path d="M19.164 19.547c-1.641-2.5-3.669-3.285-6.164-3.484v1.437c0 0.534-0.208 1.036-0.586 1.414-0.756 0.756-2.077 0.751-2.823 0.005l-6.293-6.207c-0.191-0.189-0.298-0.444-0.298-0.713s0.107-0.524 0.298-0.712l6.288-6.203c0.754-0.755 2.073-0.756 2.829 0.001 0.377 0.378 0.585 0.88 0.585 1.414v1.704c4.619 0.933 8 4.997 8 9.796v1c0 0.442-0.29 0.832-0.714 0.958-0.095 0.027-0.19 0.042-0.286 0.042-0.331 0-0.646-0.165-0.836-0.452zM12.023 14.011c2.207 0.056 4.638 0.394 6.758 2.121-0.768-3.216-3.477-5.702-6.893-6.080-0.504-0.056-0.888-0.052-0.888-0.052v-3.497l-5.576 5.496 5.576 5.5v-3.499c0 0 0.738 0.010 1.023 0.011z"></path>
</symbol>
<symbol id="icon-reply1" viewBox="0 0 24 24">
<path d="M9.984 9q4.875 0.703 7.523 3.727t3.492 7.289q-3.609-5.109-11.016-5.109v4.078l-6.984-6.984 6.984-6.984v3.984z"></path>
</symbol>
<symbol id="icon-reply" viewBox="0 0 20 20">
<path d="M15 17v-2.99c0-0.003 0-0.006 0-0.010 0-2.209-1.791-4-4-4 0 0-0 0-0 0h-3v5l-6-6 6-6v5h3c3.314 0 6 2.686 6 6v0 3h-2z"></path>
</symbol>
<symbol id="icon-settings" viewBox="0 0 32 32">
<path d="M30.391 12.68l-3.064-0.614c-0.154-0.443-0.336-0.873-0.537-1.289l1.736-2.604c0.529-0.793 0.424-1.85-0.25-2.523l-1.924-1.924c-0.387-0.387-0.898-0.586-1.416-0.586-0.383 0-0.77 0.11-1.107 0.336l-2.604 1.735c-0.418-0.202-0.848-0.382-1.291-0.536l-0.614-3.065c-0.186-0.936-1.008-1.608-1.961-1.608h-2.72c-0.953 0-1.774 0.673-1.961 1.608l-0.614 3.065c-0.443 0.154-0.873 0.335-1.289 0.536l-2.603-1.735c-0.339-0.226-0.725-0.336-1.109-0.336-0.517 0-1.028 0.199-1.415 0.586l-1.923 1.924c-0.674 0.674-0.779 1.73-0.25 2.523l1.735 2.604c-0.202 0.417-0.382 0.847-0.536 1.29l-3.066 0.613c-0.935 0.187-1.608 1.008-1.608 1.961v2.72c0 0.953 0.673 1.775 1.608 1.961l3.065 0.615c0.154 0.443 0.335 0.873 0.536 1.289l-1.734 2.604c-0.529 0.793-0.424 1.85 0.25 2.523l1.924 1.924c0.387 0.387 0.898 0.586 1.415 0.586 0.384 0 0.771-0.111 1.108-0.336l2.604-1.736c0.417 0.203 0.847 0.383 1.29 0.537l0.613 3.064c0.187 0.936 1.008 1.609 1.961 1.609h2.72c0.953 0 1.775-0.674 1.961-1.609l0.615-3.064c0.443-0.154 0.873-0.336 1.289-0.537l2.604 1.736c0.338 0.225 0.725 0.336 1.107 0.336 0.518 0 1.029-0.199 1.416-0.586l1.924-1.924c0.674-0.674 0.779-1.73 0.25-2.523l-1.736-2.604c0.203-0.418 0.383-0.848 0.537-1.291l3.064-0.613c0.935-0.185 1.609-1.008 1.609-1.961v-2.72c0-0.953-0.674-1.774-1.609-1.961zM26.934 17.975c-0.695 0.139-1.264 0.635-1.496 1.305-0.129 0.369-0.279 0.727-0.447 1.074-0.311 0.639-0.258 1.393 0.135 1.982l1.736 2.604-1.924 1.924-2.604-1.736c-0.334-0.223-0.721-0.336-1.109-0.336-0.297 0-0.596 0.066-0.871 0.199-0.348 0.168-0.705 0.32-1.076 0.449-0.668 0.232-1.164 0.801-1.303 1.496l-0.615 3.066h-2.72l-0.613-3.066c-0.139-0.695-0.635-1.264-1.304-1.496-0.369-0.129-0.728-0.279-1.075-0.447-0.276-0.135-0.574-0.201-0.872-0.201-0.389 0-0.775 0.113-1.109 0.336l-2.604 1.736-1.924-1.924 1.735-2.604c0.393-0.59 0.444-1.344 0.137-1.98-0.168-0.348-0.319-0.705-0.448-1.076-0.232-0.668-0.802-1.164-1.496-1.303l-3.065-0.615-0.002-2.721 3.066-0.613c0.694-0.139 1.264-0.635 1.496-1.304 0.129-0.369 0.278-0.728 0.447-1.075 0.31-0.638 0.258-1.392-0.136-1.981l-1.734-2.604 1.923-1.924 2.604 1.735c0.334 0.223 0.721 0.336 1.109 0.336 0.297 0 0.595-0.066 0.871-0.199 0.347-0.168 0.705-0.319 1.075-0.448 0.669-0.232 1.165-0.802 1.304-1.496l0.614-3.065 2.72-0.001 0.613 3.066c0.139 0.694 0.635 1.264 1.305 1.496 0.369 0.129 0.727 0.278 1.074 0.447 0.277 0.134 0.574 0.2 0.873 0.2 0.389 0 0.775-0.113 1.109-0.336l2.604-1.735 1.924 1.924-1.736 2.604c-0.393 0.59-0.443 1.343-0.137 1.98 0.168 0.347 0.32 0.705 0.449 1.075 0.232 0.669 0.801 1.165 1.496 1.304l3.064 0.614 0.003 2.72-3.066 0.614zM16 9.001c-3.865 0-7 3.135-7 7 0 3.866 3.135 7 7 7s7-3.135 7-7c0-3.865-3.135-7-7-7zM16 22.127c-3.382 0-6.125-2.744-6.125-6.125s2.743-6.125 6.125-6.125c3.381 0 6.125 2.743 6.125 6.125 0 3.381-2.744 6.125-6.125 6.125zM16 12.001c-2.21 0-4 1.79-4 4s1.79 4 4 4c2.209 0 4-1.791 4-4s-1.791-4-4-4zM16 19.002c-1.656 0-3-1.344-3-3s1.344-3 3-3 3 1.344 3 3c0 1.656-1.344 3-3 3z"></path>
</symbol>
<symbol id="icon-document-text" viewBox="0 0 32 32">
<path d="M19.5 3h0.5l6 7v18.009c0 1.093-0.894 1.991-1.997 1.991h-15.005c-1.107 0-1.997-0.899-1.997-2.007v-22.985c0-1.109 0.897-2.007 2.003-2.007h10.497zM19 4h-10.004c-0.55 0-0.996 0.455-0.996 0.995v23.009c0 0.55 0.455 0.995 1 0.995h15c0.552 0 1-0.445 1-0.993v-17.007h-4.002c-1.103 0-1.998-0.887-1.998-2.006v-4.994zM20 4.5v4.491c0 0.557 0.451 1.009 0.997 1.009h3.703l-4.7-5.5zM10 10v1h5v-1h-5zM10 7v1h7v-1h-7zM10 13v1h13v-1h-13zM10 16v1h10v-1h-10zM10 19v1h13v-1h-13zM10 22v1h9v-1h-9zM10 25v1h13v-1h-13z"></path>
</symbol>
<symbol id="icon-star" viewBox="0 0 32 32">
<path d="M16 23l9 6-4-10 9-6h-10l-4-10-4 10h-10l9 6-4 10 9-6zM16 21.753l-6.8 4.547 3.2-7.7-7.2-4.6h7.5l3.3-8.5 3.3 8.5h7.5l-7.2 4.6 3.2 7.7-6.8-4.547z"></path>
</symbol>
<symbol id="icon-trash-can" viewBox="0 0 32 32">
<path d="M23 7h4v1h-2v18.993c0 1.671-1.343 3.007-3 3.007h-11c-1.666 0-3-1.346-3-3.007v-18.993h-2v-1h6v-1.995c0-1.111 0.894-2.005 1.997-2.005h5.005c1.102 0 1.997 0.898 1.997 2.005v1.995h2zM9 8v19.005c0 1.102 0.893 1.995 1.992 1.995h11.016c1.1 0 1.992-0.902 1.992-1.995v-19.005h-15zM12 10v17h1v-17h-1zM16 10v17h1v-17h-1zM20 10v17h1v-17h-1zM14.003 4c-0.554 0-1.003 0.443-1.003 0.999v2.001h7v-2.001c0-0.552-0.438-0.999-1.003-0.999h-4.994z"></path>
</symbol>
<symbol id="icon-inbox" viewBox="0 0 32 32">
<path d="M21 16h6.775l-4.375-7h-13.8l-4.375 7h6.775v2.002c0 1.103 0.896 1.998 1.997 1.998h5.005c1.103 0 1.997-0.898 1.997-1.998v-2.002zM22 17v1.5c0 1.39-1.118 2.5-2.496 2.5h-6.008c-1.381 0-2.496-1.119-2.496-2.5v-1.5h-6v7h23v-7h-6zM4 16.5v-0.5l5-8h15l5 8v9h-25v-8.5z"></path>
</symbol>
<symbol id="icon-inbox-upload" viewBox="0 0 32 32">
<path d="M15 5l-3.25 3.25-0.75-0.75 4.5-4.5 4.5 4.5-0.75 0.75-3.25-3.25v11h-1v-11zM17 11h5.4l4.375 7h-6.775v2.002c0 1.1-0.894 1.998-1.997 1.998h-5.005c-1.102 0-1.997-0.895-1.997-1.998v-2.002h-6.775l4.375-7h5.4v-1h-6l-5 8v9h25v-9l-5-8h-6v1zM21 19h6v7h-23v-7h6v1.5c0 1.381 1.115 2.5 2.496 2.5h6.008c1.379 0 2.496-1.11 2.496-2.5v-1.5z"></path>
</symbol>
<symbol id="icon-file-text2" viewBox="0 0 32 32">
<path d="M28.681 7.159c-0.694-0.947-1.662-2.053-2.724-3.116s-2.169-2.030-3.116-2.724c-1.612-1.182-2.393-1.319-2.841-1.319h-15.5c-1.378 0-2.5 1.121-2.5 2.5v27c0 1.378 1.122 2.5 2.5 2.5h23c1.378 0 2.5-1.122 2.5-2.5v-19.5c0-0.448-0.137-1.23-1.319-2.841zM24.543 5.457c0.959 0.959 1.712 1.825 2.268 2.543h-4.811v-4.811c0.718 0.556 1.584 1.309 2.543 2.268zM28 29.5c0 0.271-0.229 0.5-0.5 0.5h-23c-0.271 0-0.5-0.229-0.5-0.5v-27c0-0.271 0.229-0.5 0.5-0.5 0 0 15.499-0 15.5 0v7c0 0.552 0.448 1 1 1h7v19.5z"></path>
<path d="M23 26h-14c-0.552 0-1-0.448-1-1s0.448-1 1-1h14c0.552 0 1 0.448 1 1s-0.448 1-1 1z"></path>
<path d="M23 22h-14c-0.552 0-1-0.448-1-1s0.448-1 1-1h14c0.552 0 1 0.448 1 1s-0.448 1-1 1z"></path>
<path d="M23 18h-14c-0.552 0-1-0.448-1-1s0.448-1 1-1h14c0.552 0 1 0.448 1 1s-0.448 1-1 1z"></path>
</symbol>
</defs>
</svg>
